# xmcd CD database file
#
# Track frame offsets:
#	150
#	19420
#	38620
#	64927
#
# Disc length: 1284 seconds
#
# Revision: 2
# Processed by: cddbd v1.4b41PL1 Copyright (c) Steve Scherf et al.
# Submitted via: Feurio! 1.60 - http://www.feurio.com
#
DISCID=2d050204,2e050204
DTITLE=Usher - Can U Get Wit It
DYEAR=1900
DGENRE=
TTITLE0=Radio Edit
TTITLE1=Alternate Radio Edit
TTITLE2=Gangsta Lean Remix
TTITLE3=Extended Edit
EXTD=
EXTT0=
EXTT1=
EXTT2=
EXTT3=
PLAYORDER=
